<mxfile host="Electron" modified="2024-07-18T06:26:46.491Z" agent="Mozilla/5.0 (X11; Linux x86_64) AppleWebKit/537.36 (KHTML, like Gecko) draw.io/24.6.4 Chrome/124.0.6367.207 Electron/30.0.6 Safari/537.36" etag="fXLqObn8pyr9QoyOtTJQ" version="24.6.4" type="device">
  <diagram name="Page-1" id="2YnfwdnSitkG7TWNl96d">
    <mxGraphModel dx="2049" dy="1243" grid="1" gridSize="10" guides="1" tooltips="1" connect="1" arrows="1" fold="1" page="1" pageScale="1" pageWidth="1600" pageHeight="900" math="0" shadow="0">
      <root>
        <mxCell id="0" />
        <mxCell id="1" parent="0" />
        <mxCell id="jamp1vkctDzFD9to21G2-1" value="" style="rounded=0;whiteSpace=wrap;html=1;strokeColor=none;fillColor=#414F63;" vertex="1" parent="1">
          <mxGeometry x="1221.48" y="713.36" width="120" height="60" as="geometry" />
        </mxCell>
        <mxCell id="jamp1vkctDzFD9to21G2-2" value="" style="rounded=0;whiteSpace=wrap;html=1;strokeColor=none;fillColor=#414F63;" vertex="1" parent="1">
          <mxGeometry x="1181.48" y="738.36" width="70" height="10" as="geometry" />
        </mxCell>
        <mxCell id="jamp1vkctDzFD9to21G2-3" value="" style="rounded=0;whiteSpace=wrap;html=1;strokeColor=none;fillColor=#414F63;" vertex="1" parent="1">
          <mxGeometry x="1131.48" y="720.86" width="50" height="45" as="geometry" />
        </mxCell>
        <mxCell id="jamp1vkctDzFD9to21G2-4" value="" style="rounded=0;whiteSpace=wrap;html=1;strokeColor=none;fillColor=#414F63;" vertex="1" parent="1">
          <mxGeometry x="1036" y="693.36" width="95.48" height="100" as="geometry" />
        </mxCell>
        <mxCell id="jamp1vkctDzFD9to21G2-6" value="" style="rounded=0;whiteSpace=wrap;html=1;strokeColor=none;fillColor=#414F63;" vertex="1" parent="1">
          <mxGeometry x="991.48" y="623.36" width="40" height="200" as="geometry" />
        </mxCell>
        <mxCell id="jamp1vkctDzFD9to21G2-7" value="" style="rounded=0;whiteSpace=wrap;html=1;strokeColor=none;fillColor=#414F63;" vertex="1" parent="1">
          <mxGeometry x="931.48" y="623.36" width="60" height="20" as="geometry" />
        </mxCell>
        <mxCell id="jamp1vkctDzFD9to21G2-8" value="" style="rounded=0;whiteSpace=wrap;html=1;strokeColor=none;fillColor=#414F63;" vertex="1" parent="1">
          <mxGeometry x="951.48" y="673.36" width="40" height="150" as="geometry" />
        </mxCell>
        <mxCell id="jamp1vkctDzFD9to21G2-9" value="" style="rounded=0;whiteSpace=wrap;html=1;strokeColor=none;fillColor=#414F63;" vertex="1" parent="1">
          <mxGeometry x="891.48" y="623.36" width="40" height="40" as="geometry" />
        </mxCell>
        <mxCell id="jamp1vkctDzFD9to21G2-34" value="" style="group;rotation=-90;" vertex="1" connectable="0" parent="1">
          <mxGeometry x="751.48" y="483.36" width="342" height="200" as="geometry" />
        </mxCell>
        <mxCell id="jamp1vkctDzFD9to21G2-10" value="" style="rounded=0;whiteSpace=wrap;html=1;strokeColor=none;fillColor=#414F63;rotation=-90;" vertex="1" parent="jamp1vkctDzFD9to21G2-34">
          <mxGeometry x="130" y="111" width="38" height="10" as="geometry" />
        </mxCell>
        <mxCell id="jamp1vkctDzFD9to21G2-12" value="" style="rounded=0;whiteSpace=wrap;html=1;strokeColor=none;fillColor=#414F63;rotation=-90;" vertex="1" parent="jamp1vkctDzFD9to21G2-34">
          <mxGeometry x="172" y="72" width="10" height="67.5" as="geometry" />
        </mxCell>
        <mxCell id="jamp1vkctDzFD9to21G2-13" value="" style="rounded=0;whiteSpace=wrap;html=1;strokeColor=none;fillColor=#414F63;rotation=-90;" vertex="1" parent="jamp1vkctDzFD9to21G2-34">
          <mxGeometry x="176" y="86" width="10" height="20" as="geometry" />
        </mxCell>
        <mxCell id="jamp1vkctDzFD9to21G2-14" value="" style="rounded=0;whiteSpace=wrap;html=1;strokeColor=none;fillColor=#414F63;rotation=-90;" vertex="1" parent="jamp1vkctDzFD9to21G2-34">
          <mxGeometry x="216" y="66" width="50" height="60" as="geometry" />
        </mxCell>
        <mxCell id="jamp1vkctDzFD9to21G2-16" value="" style="rounded=0;whiteSpace=wrap;html=1;strokeColor=none;fillColor=#414F63;rotation=-90;" vertex="1" parent="jamp1vkctDzFD9to21G2-34">
          <mxGeometry x="181" y="-19" width="30" height="150" as="geometry" />
        </mxCell>
        <mxCell id="jamp1vkctDzFD9to21G2-17" value="" style="rounded=0;whiteSpace=wrap;html=1;strokeColor=none;fillColor=#414F63;rotation=-90;" vertex="1" parent="jamp1vkctDzFD9to21G2-34">
          <mxGeometry x="166" y="16" width="30" height="20" as="geometry" />
        </mxCell>
        <mxCell id="jamp1vkctDzFD9to21G2-18" value="" style="rounded=0;whiteSpace=wrap;html=1;strokeColor=none;fillColor=#414F63;rotation=-45;" vertex="1" parent="jamp1vkctDzFD9to21G2-34">
          <mxGeometry x="173" y="-2" width="30" height="20" as="geometry" />
        </mxCell>
        <mxCell id="jamp1vkctDzFD9to21G2-19" value="" style="rounded=0;whiteSpace=wrap;html=1;strokeColor=none;fillColor=#414F63;rotation=-90;" vertex="1" parent="jamp1vkctDzFD9to21G2-34">
          <mxGeometry x="196" y="-14" width="20" height="30" as="geometry" />
        </mxCell>
        <mxCell id="jamp1vkctDzFD9to21G2-22" value="" style="rounded=0;whiteSpace=wrap;html=1;strokeColor=none;fillColor=#414F63;rotation=-45;" vertex="1" parent="jamp1vkctDzFD9to21G2-34">
          <mxGeometry x="209" y="-14" width="30" height="20" as="geometry" />
        </mxCell>
        <mxCell id="jamp1vkctDzFD9to21G2-23" value="" style="rounded=0;whiteSpace=wrap;html=1;strokeColor=none;fillColor=#414F63;rotation=-90;" vertex="1" parent="jamp1vkctDzFD9to21G2-34">
          <mxGeometry x="216" y="-32" width="30" height="20" as="geometry" />
        </mxCell>
        <mxCell id="jamp1vkctDzFD9to21G2-25" value="" style="rounded=0;whiteSpace=wrap;html=1;strokeColor=none;fillColor=#414F63;rotation=-90;" vertex="1" parent="jamp1vkctDzFD9to21G2-34">
          <mxGeometry x="173" y="-87" width="50" height="66" as="geometry" />
        </mxCell>
        <mxCell id="jamp1vkctDzFD9to21G2-28" value="" style="rounded=0;whiteSpace=wrap;html=1;strokeColor=none;fillColor=#414F63;rotation=-135;" vertex="1" parent="jamp1vkctDzFD9to21G2-34">
          <mxGeometry x="207" y="-49" width="30" height="20" as="geometry" />
        </mxCell>
        <mxCell id="jamp1vkctDzFD9to21G2-29" value="" style="rounded=0;whiteSpace=wrap;html=1;strokeColor=none;fillColor=#414F63;rotation=-90;" vertex="1" parent="jamp1vkctDzFD9to21G2-34">
          <mxGeometry x="91" y="61" width="10" height="10" as="geometry" />
        </mxCell>
        <mxCell id="jamp1vkctDzFD9to21G2-30" value="" style="rounded=0;whiteSpace=wrap;html=1;strokeColor=none;fillColor=#414F63;rotation=-90;" vertex="1" parent="jamp1vkctDzFD9to21G2-34">
          <mxGeometry x="91" y="101" width="10" height="10" as="geometry" />
        </mxCell>
        <mxCell id="jamp1vkctDzFD9to21G2-31" value="" style="rounded=0;whiteSpace=wrap;html=1;strokeColor=none;fillColor=#414F63;rotation=-90;" vertex="1" parent="jamp1vkctDzFD9to21G2-34">
          <mxGeometry x="91" y="141" width="10" height="10" as="geometry" />
        </mxCell>
        <mxCell id="jamp1vkctDzFD9to21G2-32" value="" style="rounded=0;whiteSpace=wrap;html=1;strokeColor=none;fillColor=#414F63;rotation=-90;" vertex="1" parent="jamp1vkctDzFD9to21G2-34">
          <mxGeometry x="91" y="181" width="10" height="10" as="geometry" />
        </mxCell>
        <mxCell id="jamp1vkctDzFD9to21G2-33" value="" style="rounded=0;whiteSpace=wrap;html=1;strokeColor=none;fillColor=#414F63;rotation=-90;" vertex="1" parent="jamp1vkctDzFD9to21G2-34">
          <mxGeometry x="71" y="221" width="50" height="50" as="geometry" />
        </mxCell>
        <mxCell id="jamp1vkctDzFD9to21G2-142" value="" style="rounded=0;whiteSpace=wrap;html=1;strokeColor=none;fillColor=#414F63;rotation=-90;" vertex="1" parent="jamp1vkctDzFD9to21G2-34">
          <mxGeometry x="158" y="-4" width="16" height="30" as="geometry" />
        </mxCell>
        <mxCell id="jamp1vkctDzFD9to21G2-57" value="" style="whiteSpace=wrap;html=1;pointerEvents=0;align=center;verticalAlign=middle;fontFamily=Helvetica;fontSize=12;fontColor=default;fillColor=#414F63;gradientColor=none;rounded=0;strokeColor=none;" vertex="1" parent="1">
          <mxGeometry x="741.48" y="718.36" width="80" height="20" as="geometry" />
        </mxCell>
        <mxCell id="jamp1vkctDzFD9to21G2-58" value="" style="whiteSpace=wrap;html=1;pointerEvents=0;align=center;verticalAlign=middle;fontFamily=Helvetica;fontSize=12;fontColor=default;fillColor=#414F63;gradientColor=none;rounded=0;strokeColor=none;rotation=60;" vertex="1" parent="1">
          <mxGeometry x="666.48" y="669.6999999999999" width="80" height="90" as="geometry" />
        </mxCell>
        <mxCell id="jamp1vkctDzFD9to21G2-59" value="" style="whiteSpace=wrap;html=1;pointerEvents=0;align=center;verticalAlign=middle;fontFamily=Helvetica;fontSize=12;fontColor=default;fillColor=#414F63;gradientColor=none;rounded=0;strokeColor=none;rotation=-90;" vertex="1" parent="1">
          <mxGeometry x="664.9300000000001" y="661.8100000000001" width="33.12" height="25" as="geometry" />
        </mxCell>
        <mxCell id="jamp1vkctDzFD9to21G2-80" value="" style="rounded=0;whiteSpace=wrap;html=1;strokeColor=none;fillColor=#414F63;rotation=-90;" vertex="1" parent="1">
          <mxGeometry x="741.48" y="659.6999999999999" width="10" height="10" as="geometry" />
        </mxCell>
        <mxCell id="jamp1vkctDzFD9to21G2-83" value="" style="rounded=0;whiteSpace=wrap;html=1;strokeColor=none;fillColor=#414F63;rotation=-90;" vertex="1" parent="1">
          <mxGeometry x="731.48" y="638.36" width="10" height="10" as="geometry" />
        </mxCell>
        <mxCell id="jamp1vkctDzFD9to21G2-86" value="" style="whiteSpace=wrap;html=1;pointerEvents=0;align=center;verticalAlign=middle;fontFamily=Helvetica;fontSize=12;fontColor=default;fillColor=#414F63;gradientColor=none;rounded=0;strokeColor=none;rotation=-75;" vertex="1" parent="1">
          <mxGeometry x="701.6700000000001" y="620.58" width="20.41" height="20" as="geometry" />
        </mxCell>
        <mxCell id="jamp1vkctDzFD9to21G2-87" value="" style="whiteSpace=wrap;html=1;pointerEvents=0;align=center;verticalAlign=middle;fontFamily=Helvetica;fontSize=12;fontColor=default;fillColor=#414F63;gradientColor=none;rounded=0;strokeColor=none;rotation=-75;" vertex="1" parent="1">
          <mxGeometry x="656.64" y="616.94" width="67.59" height="25" as="geometry" />
        </mxCell>
        <mxCell id="jamp1vkctDzFD9to21G2-91" value="" style="whiteSpace=wrap;html=1;pointerEvents=0;align=center;verticalAlign=middle;fontFamily=Helvetica;fontSize=12;fontColor=default;fillColor=#414F63;gradientColor=none;rounded=0;strokeColor=none;rotation=-45;" vertex="1" parent="1">
          <mxGeometry x="686.87" y="573.36" width="50" height="25" as="geometry" />
        </mxCell>
        <mxCell id="jamp1vkctDzFD9to21G2-92" value="" style="whiteSpace=wrap;html=1;pointerEvents=0;align=center;verticalAlign=middle;fontFamily=Helvetica;fontSize=12;fontColor=default;fillColor=#414F63;gradientColor=none;rounded=0;strokeColor=none;rotation=-90;" vertex="1" parent="1">
          <mxGeometry x="701.48" y="543.36" width="50" height="25" as="geometry" />
        </mxCell>
        <mxCell id="jamp1vkctDzFD9to21G2-117" value="" style="rounded=0;whiteSpace=wrap;html=1;strokeColor=none;fillColor=#414F63;rotation=-90;" vertex="1" parent="1">
          <mxGeometry x="811.48" y="463.3599999999999" width="10" height="10" as="geometry" />
        </mxCell>
        <mxCell id="jamp1vkctDzFD9to21G2-144" value="" style="rounded=0;whiteSpace=wrap;html=1;strokeColor=none;fillColor=#414F63;" vertex="1" parent="1">
          <mxGeometry x="1026" y="744" width="20" height="49.36" as="geometry" />
        </mxCell>
        <mxCell id="jamp1vkctDzFD9to21G2-88" value="" style="whiteSpace=wrap;html=1;pointerEvents=0;align=center;verticalAlign=middle;fontFamily=Helvetica;fontSize=12;fontColor=default;fillColor=#414F63;gradientColor=none;rounded=0;strokeColor=none;rotation=-45;" vertex="1" parent="1">
          <mxGeometry x="712" y="475" width="118.6" height="71.05" as="geometry" />
        </mxCell>
        <mxCell id="jamp1vkctDzFD9to21G2-94" value="" style="whiteSpace=wrap;html=1;pointerEvents=0;align=center;verticalAlign=middle;fontFamily=Helvetica;fontSize=12;fontColor=default;fillColor=#414F63;gradientColor=none;rounded=0;strokeColor=none;rotation=105;" vertex="1" parent="1">
          <mxGeometry x="797" y="444" width="50" height="25" as="geometry" />
        </mxCell>
        <mxCell id="jamp1vkctDzFD9to21G2-113" value="" style="rounded=0;whiteSpace=wrap;html=1;strokeColor=none;fillColor=#414F63;rotation=-45;" vertex="1" parent="1">
          <mxGeometry x="849.78" y="484" width="10" height="10" as="geometry" />
        </mxCell>
        <mxCell id="jamp1vkctDzFD9to21G2-119" value="" style="whiteSpace=wrap;html=1;pointerEvents=0;align=center;verticalAlign=middle;fontFamily=Helvetica;fontSize=12;fontColor=default;fillColor=#414F63;gradientColor=none;rounded=0;strokeColor=none;rotation=80;" vertex="1" parent="1">
          <mxGeometry x="709" y="313" width="147.42" height="41.25" as="geometry" />
        </mxCell>
        <mxCell id="jamp1vkctDzFD9to21G2-120" value="" style="whiteSpace=wrap;html=1;pointerEvents=0;align=center;verticalAlign=middle;fontFamily=Helvetica;fontSize=12;fontColor=default;fillColor=#414F63;gradientColor=none;rounded=0;strokeColor=none;rotation=45;" vertex="1" parent="1">
          <mxGeometry x="781" y="409" width="60.6" height="25" as="geometry" />
        </mxCell>
        <mxCell id="jamp1vkctDzFD9to21G2-124" value="" style="whiteSpace=wrap;html=1;pointerEvents=0;align=center;verticalAlign=middle;fontFamily=Helvetica;fontSize=12;fontColor=default;fillColor=#414F63;gradientColor=none;rounded=0;strokeColor=none;rotation=80;" vertex="1" parent="1">
          <mxGeometry x="747" y="207" width="30" height="54.22" as="geometry" />
        </mxCell>
        <mxCell id="jamp1vkctDzFD9to21G2-125" value="" style="whiteSpace=wrap;html=1;pointerEvents=0;align=center;verticalAlign=middle;fontFamily=Helvetica;fontSize=12;fontColor=default;fillColor=#414F63;gradientColor=none;rounded=0;strokeColor=none;rotation=45;" vertex="1" parent="1">
          <mxGeometry x="617.83" y="157.57" width="167.39" height="37.73" as="geometry" />
        </mxCell>
        <mxCell id="jamp1vkctDzFD9to21G2-130" value="" style="whiteSpace=wrap;html=1;pointerEvents=0;align=center;verticalAlign=middle;fontFamily=Helvetica;fontSize=12;fontColor=default;fillColor=#414F63;gradientColor=none;rounded=0;strokeColor=none;rotation=45;" vertex="1" parent="1">
          <mxGeometry x="612" y="192" width="107" height="75.78" as="geometry" />
        </mxCell>
        <mxCell id="jamp1vkctDzFD9to21G2-131" value="" style="whiteSpace=wrap;html=1;pointerEvents=0;align=center;verticalAlign=middle;fontFamily=Helvetica;fontSize=12;fontColor=default;fillColor=#414F63;gradientColor=none;rounded=0;strokeColor=none;rotation=90;" vertex="1" parent="1">
          <mxGeometry x="714" y="218" width="9.14" height="52.93" as="geometry" />
        </mxCell>
        <mxCell id="jamp1vkctDzFD9to21G2-132" value="" style="whiteSpace=wrap;html=1;pointerEvents=0;align=center;verticalAlign=middle;fontFamily=Helvetica;fontSize=12;fontColor=default;fillColor=#414F63;gradientColor=none;rounded=0;strokeColor=none;rotation=80;" vertex="1" parent="1">
          <mxGeometry x="701" y="288" width="61.78" height="40" as="geometry" />
        </mxCell>
        <mxCell id="jamp1vkctDzFD9to21G2-133" value="" style="whiteSpace=wrap;html=1;pointerEvents=0;align=center;verticalAlign=middle;fontFamily=Helvetica;fontSize=12;fontColor=default;fillColor=#414F63;gradientColor=none;rounded=0;strokeColor=none;rotation=80;" vertex="1" parent="1">
          <mxGeometry x="788" y="260" width="61.78" height="40.35" as="geometry" />
        </mxCell>
        <mxCell id="jamp1vkctDzFD9to21G2-134" value="" style="whiteSpace=wrap;html=1;pointerEvents=0;align=center;verticalAlign=middle;fontFamily=Helvetica;fontSize=12;fontColor=default;fillColor=#414F63;gradientColor=none;rounded=0;strokeColor=none;rotation=80;" vertex="1" parent="1">
          <mxGeometry x="802" y="330" width="61.78" height="40.35" as="geometry" />
        </mxCell>
        <mxCell id="jamp1vkctDzFD9to21G2-135" value="" style="whiteSpace=wrap;html=1;pointerEvents=0;align=center;verticalAlign=middle;fontFamily=Helvetica;fontSize=12;fontColor=default;fillColor=#414F63;gradientColor=none;rounded=0;strokeColor=none;rotation=45;" vertex="1" parent="1">
          <mxGeometry x="829" y="378" width="39.13" height="15.05" as="geometry" />
        </mxCell>
        <mxCell id="jamp1vkctDzFD9to21G2-137" value="" style="whiteSpace=wrap;html=1;pointerEvents=0;align=center;verticalAlign=middle;fontFamily=Helvetica;fontSize=12;fontColor=default;fillColor=#414F63;gradientColor=none;rounded=0;strokeColor=none;rotation=80;" vertex="1" parent="1">
          <mxGeometry x="713" y="370" width="61.78" height="40.35" as="geometry" />
        </mxCell>
        <mxCell id="jamp1vkctDzFD9to21G2-138" value="" style="whiteSpace=wrap;html=1;pointerEvents=0;align=center;verticalAlign=middle;fontFamily=Helvetica;fontSize=12;fontColor=default;fillColor=#414F63;gradientColor=none;rounded=0;strokeColor=none;rotation=80;" vertex="1" parent="1">
          <mxGeometry x="742" y="321" width="10" height="50.6" as="geometry" />
        </mxCell>
        <mxCell id="jamp1vkctDzFD9to21G2-139" value="" style="whiteSpace=wrap;html=1;pointerEvents=0;align=center;verticalAlign=middle;fontFamily=Helvetica;fontSize=12;fontColor=default;fillColor=#414F63;gradientColor=none;rounded=0;strokeColor=none;rotation=60;" vertex="1" parent="1">
          <mxGeometry x="703" y="340" width="10" height="36" as="geometry" />
        </mxCell>
        <mxCell id="jamp1vkctDzFD9to21G2-140" value="" style="whiteSpace=wrap;html=1;pointerEvents=0;align=center;verticalAlign=middle;fontFamily=Helvetica;fontSize=12;fontColor=default;fillColor=#414F63;gradientColor=none;rounded=0;strokeColor=none;rotation=105;" vertex="1" parent="1">
          <mxGeometry x="685" y="351" width="10" height="26.14" as="geometry" />
        </mxCell>
        <mxCell id="jamp1vkctDzFD9to21G2-141" value="" style="whiteSpace=wrap;html=1;pointerEvents=0;align=center;verticalAlign=middle;fontFamily=Helvetica;fontSize=12;fontColor=default;fillColor=#414F63;gradientColor=none;rounded=0;strokeColor=none;rotation=45;" vertex="1" parent="1">
          <mxGeometry x="553" y="264" width="157" height="69.36" as="geometry" />
        </mxCell>
        <mxCell id="jamp1vkctDzFD9to21G2-143" value="" style="whiteSpace=wrap;html=1;pointerEvents=0;align=center;verticalAlign=middle;fontFamily=Helvetica;fontSize=12;fontColor=default;fillColor=#414F63;gradientColor=none;rounded=0;strokeColor=none;rotation=0;" vertex="1" parent="1">
          <mxGeometry x="852" y="390" width="39.13" height="15.05" as="geometry" />
        </mxCell>
        <mxCell id="jamp1vkctDzFD9to21G2-116" value="" style="rounded=0;whiteSpace=wrap;html=1;strokeColor=none;fillColor=#414F63;rotation=-90;" vertex="1" parent="1">
          <mxGeometry x="842" y="458.9999999999999" width="10" height="10" as="geometry" />
        </mxCell>
        <mxCell id="jamp1vkctDzFD9to21G2-126" value="" style="whiteSpace=wrap;html=1;pointerEvents=0;align=center;verticalAlign=middle;fontFamily=Helvetica;fontSize=12;fontColor=default;fillColor=#414F63;gradientColor=none;rounded=0;strokeColor=none;rotation=0;" vertex="1" parent="1">
          <mxGeometry x="608" y="107" width="38" height="57.73" as="geometry" />
        </mxCell>
        <mxCell id="jamp1vkctDzFD9to21G2-127" value="" style="whiteSpace=wrap;html=1;pointerEvents=0;align=center;verticalAlign=middle;fontFamily=Helvetica;fontSize=12;fontColor=default;fillColor=#414F63;gradientColor=none;rounded=0;strokeColor=none;rotation=0;" vertex="1" parent="1">
          <mxGeometry x="537.9993218813452" y="75.99932188134525" width="70" height="120" as="geometry" />
        </mxCell>
        <mxCell id="jamp1vkctDzFD9to21G2-128" value="" style="whiteSpace=wrap;html=1;pointerEvents=0;align=center;verticalAlign=middle;fontFamily=Helvetica;fontSize=12;fontColor=default;fillColor=#414F63;gradientColor=none;rounded=0;strokeColor=none;rotation=0;" vertex="1" parent="1">
          <mxGeometry x="358.99932188134517" y="105.99932188134525" width="180" height="60" as="geometry" />
        </mxCell>
        <mxCell id="jamp1vkctDzFD9to21G2-129" value="" style="whiteSpace=wrap;html=1;pointerEvents=0;align=center;verticalAlign=middle;fontFamily=Helvetica;fontSize=12;fontColor=default;fillColor=#414F63;gradientColor=none;rounded=0;strokeColor=none;rotation=0;" vertex="1" parent="1">
          <mxGeometry x="258.9993218813452" y="85.99932188134525" width="100" height="100" as="geometry" />
        </mxCell>
      </root>
    </mxGraphModel>
  </diagram>
</mxfile>
